<svg id="Layer_1" data-name="Layer 1" xmlns="http://www.w3.org/2000/svg" viewBox="0 0 769.77 738.71"><defs><style>.cls-1{fill:#e2e2e2;opacity:0.5;}.cls-2{fill:#fff;}</style></defs><path class="cls-1" d="M0,0H697.19a65.7,65.7,0,0,1,65.7,65.7V673a65.7,65.7,0,0,1-65.7,65.7H0a0,0,0,0,1,0,0V0A0,0,0,0,1,0,0Z"/><path class="cls-2" d="M-232.26,738.71a18.27,18.27,0,0,1-13-5.39L-596.23,382.39a18.31,18.31,0,0,1-5.4-13,18.27,18.27,0,0,1,5.4-13L-245.29,5.4a18.3,18.3,0,0,1,13-5.4,18.29,18.29,0,0,1,13,5.4L131.7,356.34a18.41,18.41,0,0,1,0,26.05L-219.24,733.33A18.28,18.28,0,0,1-232.26,738.71ZM-591.68,369.36l359.42,359.42L127.15,369.36-232.26,9.94Z"/><path class="cls-2" d="M-47.77,738.71a18.27,18.27,0,0,1-13-5.39L-411.74,382.39a18.31,18.31,0,0,1-5.4-13,18.27,18.27,0,0,1,5.4-13L-60.8,5.4a18.31,18.31,0,0,1,13-5.4,18.29,18.29,0,0,1,13,5.4L316.19,356.34a18.41,18.41,0,0,1,0,26.05L-34.75,733.33A18.28,18.28,0,0,1-47.77,738.71ZM-407.19,369.36-47.77,728.78,311.64,369.36-47.77,9.94Z"/></svg>