<svg id="Layer_1" data-name="Layer 1" xmlns="http://www.w3.org/2000/svg" viewBox="0 0 758.36 738.71"><defs><style>.cls-1{fill:#e2e2e2;opacity:0.5;}.cls-2{fill:#fff;}</style></defs><path class="cls-1" d="M75.1,0H758.36a0,0,0,0,1,0,0V738.71a0,0,0,0,1,0,0H75.1A65.07,65.07,0,0,1,10,673.64V65.07A65.07,65.07,0,0,1,75.1,0Z"/><path class="cls-2" d="M806.32,738.71a18.27,18.27,0,0,1-13-5.39L442.36,382.39a18.41,18.41,0,0,1,0-26.05L793.29,5.4a18.42,18.42,0,0,1,26.06,0l350.93,350.94a18.41,18.41,0,0,1,0,26.05L819.35,733.33A18.3,18.3,0,0,1,806.32,738.71ZM446.91,369.36,806.32,728.78l359.42-359.42L806.32,9.94Z"/><path class="cls-2" d="M990.81,738.71a18.27,18.27,0,0,1-13-5.39L626.85,382.39a18.41,18.41,0,0,1,0-26.05L977.78,5.4a18.42,18.42,0,0,1,26.06,0l350.93,350.94a18.41,18.41,0,0,1,0,26.05L1003.84,733.33A18.3,18.3,0,0,1,990.81,738.71ZM631.4,369.36,990.81,728.78l359.42-359.42L990.81,9.94Z"/></svg>