<svg xmlns="http://www.w3.org/2000/svg" viewBox="0 0 33.13 33.13"><defs><style>.cls-1{fill:#dc1f2d;}</style></defs><g id="Layer_2" data-name="Layer 2"><g id="Layer_1-2" data-name="Layer 1"><path class="cls-1" d="M16.56,0A16.57,16.57,0,1,0,33.13,16.56,16.57,16.57,0,0,0,16.56,0ZM26.93,10.38a12,12,0,0,1,1.68,5.67H22.76a22.07,22.07,0,0,0-.45-4,21.46,21.46,0,0,0,4.44-1.56Zm-20.73,0,.17.09a24.14,24.14,0,0,0,4.47,1.47,22.07,22.07,0,0,0-.47,4.11H4.51A12,12,0,0,1,6.2,10.38Zm0,12.36a12,12,0,0,1-1.69-5.66h5.86a22,22,0,0,0,.45,4,22.4,22.4,0,0,0-4.45,1.57Zm.58.87,0,0a21.29,21.29,0,0,1,4.24-1.49c1,3.88,3.11,6.53,5.5,6.53A12,12,0,0,1,6.78,23.61Zm6-11.3a27.76,27.76,0,0,0,3.24.32v3.42H11.41a20.51,20.51,0,0,1,.44-3.9Zm-.65-1.16a13.82,13.82,0,0,1,1-2.64,7.2,7.2,0,0,1,1.71-2.26A3.16,3.16,0,0,1,16,5.61v6a23.88,23.88,0,0,1-3-.3ZM16,17.08v3.4c-.71,0-1.41,0-2.11.11a19.64,19.64,0,0,0-2,.29,21.25,21.25,0,0,1-.42-3.8Zm0,4.44v6a3,3,0,0,1-1.17-.63,7.2,7.2,0,0,1-1.71-2.26,14.1,14.1,0,0,1-1-2.73A22.8,22.8,0,0,1,16,21.52Zm-4.9-10.59a22.43,22.43,0,0,1-4.26-1.4l0,0a12.06,12.06,0,0,1,19.57,0l0,0A20.1,20.1,0,0,1,22.07,11C21,7.15,19,4.5,16.56,4.5S12.12,7.11,11.08,10.93Zm9.31,9.89A27.84,27.84,0,0,0,17,20.49V17.08h4.7A21.15,21.15,0,0,1,21.28,21ZM21,22a13.42,13.42,0,0,1-1,2.64,7.2,7.2,0,0,1-1.71,2.26,3,3,0,0,1-1.3.66v-6a25.53,25.53,0,0,1,3.17.3Zm-4-5.93v-3.4c.75,0,1.5,0,2.23-.11s1.38-.16,2.05-.29a21.15,21.15,0,0,1,.42,3.8Zm0-4.44v-6a3.06,3.06,0,0,1,1.3.67A7.2,7.2,0,0,1,20,8.51a13.85,13.85,0,0,1,1,2.73A23.43,23.43,0,0,1,17,11.61Zm-.46,17c2.38,0,4.45-2.61,5.49-6.43a23.26,23.26,0,0,1,4.26,1.39l0,0A12,12,0,0,1,16.56,28.63Zm10.37-5.89-.17-.08a23.28,23.28,0,0,0-4.47-1.47,22.94,22.94,0,0,0,.47-4.11h5.85A12,12,0,0,1,26.93,22.74Z"/></g></g></svg>