<svg xmlns="http://www.w3.org/2000/svg" viewBox="0 0 151.48 106.15"><defs><style>.cls-1{fill:#333232;}.cls-2{fill:#dc1f2d;}.cls-3{fill:#fcb828;}.cls-4{fill:#00925b;}.cls-5{fill:#0686c7;}</style></defs><g id="Layer_2" data-name="Layer 2"><g id="Layer_1-2" data-name="Layer 1"><path class="cls-1" d="M0,80.46H8.73l4.45,18.41,4.46-18.41h8.73v25.25H21.24V86.17h-.56l-4.93,18.42H10.62L5.68,86.17H5.12v19.54H0Z"/><path class="cls-1" d="M31.86,80.46h8.66l6.09,20.79H47V80.46H52.1v25.25H43.67l-6.31-20.8H37v20.8H31.86Z"/><path class="cls-1" d="M70.26,85H63.51V80.46H82.07V85H75.39v20.72H70.26Z"/><path class="cls-1" d="M82.93,87.14h4.94v2a21.23,21.23,0,0,1,5.94-2.42v5a43.23,43.23,0,0,0-5.91,1.56v12.44h-5Z"/><path class="cls-1" d="M95.52,100.06c0-4.19,2.41-5.38,6.5-5.68l4-.3V92.93c0-1.59-.7-2-2.19-2-1.78,0-5,.18-7,.29l-.15-3.45a34.31,34.31,0,0,1,7.54-1.08c4.83,0,6.76,1.9,6.76,6.24v7.73c.07,1.11.22,1.56,1.22,1.74l-.15,3.75a11.36,11.36,0,0,1-3.23-.33,6.22,6.22,0,0,1-2.08-1,14,14,0,0,1-5.46,1.3C97.38,106.15,95.52,104,95.52,100.06ZM106,101.51v-4l-3.38.3c-1.3.11-2.08.74-2.08,2.07s.48,2.2,1.82,2.2A15.21,15.21,0,0,0,106,101.51Z"/><path class="cls-1" d="M114.83,96.35c0-6.8,2.64-9.66,7.69-9.66a27.41,27.41,0,0,1,4,.52v-7.5h5v26h-4.93v-.78a12.82,12.82,0,0,1-4.5,1.22C116.46,106.15,114.83,102.89,114.83,96.35Zm11.7,4.79V91.37a25.39,25.39,0,0,0-3.64-.37c-1.86,0-3,1.6-3,5.35s.71,5.35,3.05,5.35A15.13,15.13,0,0,0,126.53,101.14Z"/><path class="cls-1" d="M135.18,96.68c0-6.61,2.79-10,8.21-10s8.09,2.79,8.09,8.4l-.37,3.45H140.2c0,2.23,1.07,3.23,3.75,3.23,2.22,0,5.23-.18,6.87-.33l.07,3.67a37.46,37.46,0,0,1-7.72,1C137.56,106.15,135.18,103.37,135.18,96.68Zm11.4-1.93c0-3-.85-4-3.19-4s-3.19,1.15-3.23,4Z"/><path class="cls-2" d="M71.3,35.46H71a2.41,2.41,0,0,1-1.7-.71L55.58,21.06a2.42,2.42,0,0,1-.7-1.7V2.4A2.4,2.4,0,0,1,58.46.31l14,7.85a2.41,2.41,0,0,1,1.23,2.1V33.05A2.41,2.41,0,0,1,71.3,35.46ZM59.68,18.36l9.21,9.21V11.67L59.68,6.51Z"/><path class="cls-2" d="M72,35.46h-.33a2.41,2.41,0,0,1-2.4-2.41V10.26a2.41,2.41,0,0,1,1.23-2.1l14-7.85A2.39,2.39,0,0,1,88.1,2.4v17a2.4,2.4,0,1,1-4.8,0V6.51l-9.21,5.16V31.85A2.41,2.41,0,0,1,72,35.46Z"/><path class="cls-3" d="M85.7,67.13a2.43,2.43,0,0,1-1.17-.3L70.51,59a2.41,2.41,0,0,1-1.23-2.1V34.08a2.4,2.4,0,0,1,2.4-2.4H72a2.39,2.39,0,0,1,1.69.7l13.7,13.7a2.4,2.4,0,0,1,.7,1.7v17a2.4,2.4,0,0,1-1.18,2.07A2.43,2.43,0,0,1,85.7,67.13ZM74.09,55.46l9.21,5.17V48.77l-9.21-9.21Z"/><path class="cls-3" d="M57.28,67.13a2.37,2.37,0,0,1-1.21-.33,2.39,2.39,0,0,1-1.19-2.07v-17a2.4,2.4,0,1,1,4.8,0V60.63l9.21-5.17V35.28A2.4,2.4,0,0,1,71,31.68h.32a2.4,2.4,0,0,1,2.4,2.4V56.87A2.41,2.41,0,0,1,72.47,59l-14,7.86A2.46,2.46,0,0,1,57.28,67.13Z"/><path class="cls-4" d="M57.28,50.18h-17a2.4,2.4,0,0,1-2.1-3.58l7.86-14a2.4,2.4,0,0,1,2.09-1.22H71a2.4,2.4,0,0,1,2.4,2.4v.32a2.37,2.37,0,0,1-.71,1.7L59,49.48A2.4,2.4,0,0,1,57.28,50.18ZM44.43,45.37H56.28l9.21-9.21H49.59Z"/><path class="cls-4" d="M71,35.78H48.18a2.39,2.39,0,0,1-2.09-1.23l-7.86-14a2.4,2.4,0,0,1,0-2.39A2.43,2.43,0,0,1,40.33,17h17a2.41,2.41,0,0,1,0,4.81H44.43L49.59,31H69.77A2.48,2.48,0,0,1,71,30.65a2.4,2.4,0,0,1,2.4,2.4v.32A2.41,2.41,0,0,1,71,35.78Z"/><path class="cls-5" d="M94.8,35.78H72a2.41,2.41,0,0,1-2.41-2.41v-.32a2.41,2.41,0,0,1,.71-1.7L84,17.66A2.41,2.41,0,0,1,85.7,17h17a2.4,2.4,0,0,1,2.1,3.58l-7.86,14A2.39,2.39,0,0,1,94.8,35.78ZM77.49,31h15.9l5.16-9.21H86.7Z"/><path class="cls-5" d="M102.65,50.18h-17a2.41,2.41,0,0,1,0-4.81H98.55l-5.16-9.21H73.21a2.38,2.38,0,0,1-1.2.33,2.41,2.41,0,0,1-2.41-2.41v-.32A2.4,2.4,0,0,1,72,31.36H94.8a2.4,2.4,0,0,1,2.09,1.22l7.86,14a2.4,2.4,0,0,1-2.1,3.58Z"/></g></g></svg>