<svg xmlns="http://www.w3.org/2000/svg" viewBox="0 0 33.26 33.26"><defs><style>.cls-1{fill:#dc1f2d;}</style></defs><g id="Layer_2" data-name="Layer 2"><g id="Layer_1-2" data-name="Layer 1"><path class="cls-1" d="M16.63,0A16.63,16.63,0,1,0,33.26,16.63,16.62,16.62,0,0,0,16.63,0Zm9.22,25.18a6.88,6.88,0,0,1-2.53,2,4.58,4.58,0,0,1-1.81.37A5,5,0,0,1,19.3,27a16.92,16.92,0,0,1-4.58-3,21.79,21.79,0,0,1-3-3.69,20.44,20.44,0,0,1-2.24-4.05A16.74,16.74,0,0,1,8.46,11a4.74,4.74,0,0,1,1.35-3.8,6.73,6.73,0,0,1,2.76-1.61A2,2,0,0,1,14,5.62a2,2,0,0,1,1.07,1.09l1.21,3a2,2,0,0,1-.81,2.47L14.1,13a1.12,1.12,0,0,0-.48.61,1.16,1.16,0,0,0,0,.78,20.86,20.86,0,0,0,1.88,3.53,20.6,20.6,0,0,0,2.54,3,1.12,1.12,0,0,0,.64.3,1.07,1.07,0,0,0,.81-.21l1.3-.95a2,2,0,0,1,1.65-.34,2,2,0,0,1,.95.52l2.29,2.21a2,2,0,0,1,.15,2.74Z"/></g></g></svg>